<svg xmlns="http://www.w3.org/2000/svg" viewBox="0 0 656.48 656.48"><rect width="656.48" height="656.48" fill="#ff8200" id="bg" class="bg"/><g><g transform="translate(41.03,&#10;                                41.03) rotate(90, 41.03, 41.03)"><svg xmlns="http://www.w3.org/2000/svg" id="Layer_1" data-name="Layer 1" viewBox="0 0 100 100" width="82.06" height="82.06"><path d="M50,100h0A50,50,0,0,1,0,50V0H100V50A50,50,0,0,1,50,100Z" fill="#FFDE79"/></svg></g><g transform="translate(205.15,&#10;                                41.03) rotate(180, 41.03, 41.03)"><svg xmlns="http://www.w3.org/2000/svg" id="Layer_1" data-name="Layer 1" viewBox="0 0 100 100" width="82.06" height="82.06"><path d="M50,100h0A50,50,0,0,1,0,50V0H100V50A50,50,0,0,1,50,100Z" fill="#FFDE79"/></svg></g><g transform="translate(205.15,&#10;                                205.15) rotate(180, 41.03, 41.03)"><svg xmlns="http://www.w3.org/2000/svg" id="Layer_1" data-name="Layer 1" viewBox="0 0 100 100" width="82.06" height="82.06"><path d="M50,100a50,50,0,1,1,50-50v50Z" fill="#FFDE79"/></svg></g><g transform="translate(369.27,&#10;                                41.03) rotate(270, 41.03, 41.03)"><svg xmlns="http://www.w3.org/2000/svg" id="Layer_1" data-name="Layer 1" viewBox="0 0 100 100" width="82.06" height="82.06"><path d="M100,100A50,50,0,0,0,0,100Z" fill="#FFDE79"/></svg></g><g transform="translate(369.27,&#10;                                205.15) rotate(90, 41.03, 41.03)"><svg xmlns="http://www.w3.org/2000/svg" id="Layer_1" data-name="Layer 1" viewBox="0 0 100 100" width="82.06" height="82.06"><path d="M100,100A50,50,0,0,0,0,100Z" fill="#FFDE79"/></svg></g><g transform="translate(533.39,&#10;                                205.15) rotate(0, 41.03, 41.03)"><svg xmlns="http://www.w3.org/2000/svg" id="Layer_1" data-name="Layer 1" viewBox="0 0 100 100" width="82.06" height="82.06"><path d="M50,100a50,50,0,1,1,50-50v50Z" fill="#FFDE79"/></svg></g></g><g><g transform="translate(533.39,&#10;                                369.27) rotate(270, 41.03, 41.03)"><svg xmlns="http://www.w3.org/2000/svg" id="Layer_1" data-name="Layer 1" viewBox="0 0 100 100" width="82.06" height="82.06"><path d="M50,100h0A50,50,0,0,1,0,50V0H100V50A50,50,0,0,1,50,100Z" fill="#FFDE79"/></svg></g><g transform="translate(533.39,&#10;                                533.39) rotate(270, 41.03, 41.03)"><svg xmlns="http://www.w3.org/2000/svg" id="Layer_1" data-name="Layer 1" viewBox="0 0 100 100" width="82.06" height="82.06"><path d="M50,100a50,50,0,1,1,50-50v50Z" fill="#FFDE79"/></svg></g></g></svg>