<svg xmlns="http://www.w3.org/2000/svg" viewBox="0 0 656.48 656.48"><rect width="656.48" height="656.48" fill="#05ff00" id="bg" class="bg"/><g><g transform="translate(8.21,&#10;                                8.21) rotate(90, 73.854, 73.854)"><svg xmlns="http://www.w3.org/2000/svg" id="Layer_1" data-name="Layer 1" viewBox="0 0 100 100" width="147.708" height="147.708"><path d="M50,100h0A50,50,0,0,1,0,50V0H100V50A50,50,0,0,1,50,100Z" fill="#7AFF78"/></svg></g><g transform="translate(172.33,&#10;                                8.21) rotate(90, 73.854, 73.854)"><svg xmlns="http://www.w3.org/2000/svg" id="Layer_1" data-name="Layer 1" viewBox="0 0 100 100" width="147.708" height="147.708"><circle cx="50" cy="50" r="50" fill="#7AFF78"/></svg></g><g transform="translate(172.33,&#10;                                172.33) rotate(270, 73.854, 73.854)"><svg xmlns="http://www.w3.org/2000/svg" id="Layer_1" data-name="Layer 1" viewBox="0 0 100 100" width="147.708" height="147.708"><path d="M50,100a50,50,0,1,1,50-50v50Z" fill="#7AFF78"/></svg></g><g transform="translate(336.45,&#10;                                8.21) rotate(180, 73.854, 73.854)"><svg xmlns="http://www.w3.org/2000/svg" id="Layer_1" data-name="Layer 1" viewBox="0 0 100 100" width="147.708" height="147.708"><path d="M50,100h0A50,50,0,0,1,0,50V0H100V50A50,50,0,0,1,50,100Z" fill="#7AFF78"/></svg></g><g transform="translate(500.57,&#10;                                8.21) rotate(180, 73.854, 73.854)"><svg xmlns="http://www.w3.org/2000/svg" id="Layer_1" data-name="Layer 1" viewBox="0 0 100 100" width="147.708" height="147.708"><path d="M50,100h0A50,50,0,0,1,0,50V0H100V50A50,50,0,0,1,50,100Z" fill="#7AFF78"/></svg></g></g><g><g transform="translate(172.33,&#10;                                336.45) rotate(90, 73.854, 73.854)"><svg xmlns="http://www.w3.org/2000/svg" id="Layer_1" data-name="Layer 1" viewBox="0 0 100 100" width="147.708" height="147.708"><circle cx="50" cy="50" r="50" fill="#7AFF78"/></svg></g><g transform="translate(172.33,&#10;                                500.57) rotate(0, 73.854, 73.854)"><svg xmlns="http://www.w3.org/2000/svg" id="Layer_1" data-name="Layer 1" viewBox="0 0 100 100" width="147.708" height="147.708"><path d="M100,100A50,50,0,0,0,0,100Z" fill="#7AFF78"/></svg></g><g transform="translate(500.57,&#10;                                336.45) rotate(270, 73.854, 73.854)"><svg xmlns="http://www.w3.org/2000/svg" id="Layer_1" data-name="Layer 1" viewBox="0 0 100 100" width="147.708" height="147.708"><circle cx="50" cy="50" r="50" fill="#7AFF78"/></svg></g><g transform="translate(336.45,&#10;                                500.57) rotate(180, 73.854, 73.854)"><svg xmlns="http://www.w3.org/2000/svg" id="Layer_1" data-name="Layer 1" viewBox="0 0 100 100" width="147.708" height="147.708"><path d="M50,100a50,50,0,1,1,50-50v50Z" fill="#7AFF78"/></svg></g><g transform="translate(500.57,&#10;                                500.57) rotate(180, 73.854, 73.854)"><svg xmlns="http://www.w3.org/2000/svg" id="Layer_1" data-name="Layer 1" viewBox="0 0 100 100" width="147.708" height="147.708"><path d="M50,100a50,50,0,1,1,50-50v50Z" fill="#7AFF78"/></svg></g></g></svg>