<svg xmlns="http://www.w3.org/2000/svg" viewBox="0 0 656.48 656.48"><rect width="656.48" height="656.48" fill="#ff00e6" id="bg" class="bg"/><g><g transform="translate(168.22,&#10;                                4.10) rotate(0, 77.957, 77.957)"><svg xmlns="http://www.w3.org/2000/svg" id="Layer_1" data-name="Layer 1" viewBox="0 0 100 100" width="155.914" height="155.914"><path d="M50,100a50,50,0,1,1,50-50v50Z" fill="#FF50EE"/></svg></g><g transform="translate(332.34,&#10;                                4.10) rotate(0, 77.957, 77.957)"><svg xmlns="http://www.w3.org/2000/svg" id="Layer_1" data-name="Layer 1" viewBox="0 0 100 100" width="155.914" height="155.914"><circle cx="50" cy="50" r="50" fill="#FF50EE"/></svg></g><g transform="translate(496.46,&#10;                                4.10) rotate(180, 77.957, 77.957)"><svg xmlns="http://www.w3.org/2000/svg" id="Layer_1" data-name="Layer 1" viewBox="0 0 100 100" width="155.914" height="155.914"><path d="M50,100a50,50,0,1,1,50-50v50Z" fill="#FF50EE"/></svg></g><g transform="translate(332.34,&#10;                                168.22) rotate(180, 77.957, 77.957)"><svg xmlns="http://www.w3.org/2000/svg" id="Layer_1" data-name="Layer 1" viewBox="0 0 100 100" width="155.914" height="155.914"><path d="M50,100h0A50,50,0,0,1,0,50V0H100V50A50,50,0,0,1,50,100Z" fill="#FF50EE"/></svg></g><g transform="translate(496.46,&#10;                                168.22) rotate(90, 77.957, 77.957)"><svg xmlns="http://www.w3.org/2000/svg" id="Layer_1" data-name="Layer 1" viewBox="0 0 100 100" width="155.914" height="155.914"><path d="M100,100A50,50,0,0,0,0,100Z" fill="#FF50EE"/></svg></g></g><g><g transform="translate(168.22,&#10;                                332.34) rotate(180, 77.957, 77.957)"><svg xmlns="http://www.w3.org/2000/svg" id="Layer_1" data-name="Layer 1" viewBox="0 0 100 100" width="155.914" height="155.914"><path d="M50,100h0A50,50,0,0,1,0,50V0H100V50A50,50,0,0,1,50,100Z" fill="#FF50EE"/></svg></g><g transform="translate(4.10,&#10;                                496.46) rotate(0, 77.957, 77.957)"><svg xmlns="http://www.w3.org/2000/svg" id="Layer_1" data-name="Layer 1" viewBox="0 0 100 100" width="155.914" height="155.914"><path d="M50,100h0A50,50,0,0,1,0,50V0H100V50A50,50,0,0,1,50,100Z" fill="#FF50EE"/></svg></g><g transform="translate(168.22,&#10;                                496.46) rotate(90, 77.957, 77.957)"><svg xmlns="http://www.w3.org/2000/svg" id="Layer_1" data-name="Layer 1" viewBox="0 0 100 100" width="155.914" height="155.914"><path d="M50,100h0A50,50,0,0,1,0,50V0H100V50A50,50,0,0,1,50,100Z" fill="#FF50EE"/></svg></g><g transform="translate(332.34,&#10;                                332.34) rotate(90, 77.957, 77.957)"><svg xmlns="http://www.w3.org/2000/svg" id="Layer_1" data-name="Layer 1" viewBox="0 0 100 100" width="155.914" height="155.914"><circle cx="50" cy="50" r="50" fill="#FF50EE"/></svg></g><g transform="translate(496.46,&#10;                                332.34) rotate(270, 77.957, 77.957)"><svg xmlns="http://www.w3.org/2000/svg" id="Layer_1" data-name="Layer 1" viewBox="0 0 100 100" width="155.914" height="155.914"><path d="M100,100A50,50,0,0,0,0,100Z" fill="#FF50EE"/></svg></g></g></svg>