<svg xmlns="http://www.w3.org/2000/svg" xlink="http://www.w3.org/1999/xlink" viewBox="0 0 128 40" id="svg4155773774">
                    <path d="M 72.299 20.122 C 72.299 24.728 69.619 27.898 65.071 27.898 C 63.204 27.898 61.487 27.121 60.734 25.924 L 60.734 27.659 L 56.939 27.659 L 56.939 6.483 L 60.734 6.483 L 60.734 14.259 C 61.608 13.123 63.234 12.345 65.131 12.345 C 69.619 12.345 72.299 15.515 72.299 20.122 Z M 60.493 20.122 C 60.493 22.844 62.09 24.638 64.529 24.638 C 66.938 24.638 68.535 22.844 68.535 20.122 C 68.535 17.4 66.938 15.605 64.529 15.605 C 62.09 15.605 60.493 17.4 60.493 20.122 Z M 18.193 27.66 L 13.558 18.297 C 15.636 17.28 16.871 15.277 16.871 12.913 C 16.871 9.145 14.19 6.722 10.064 6.722 L 0 6.722 L 0.03 27.659 L 4.126 27.659 L 4.126 19.075 L 9.372 19.075 L 13.434 27.659 L 18.193 27.659 Z M 4.126 10.22 L 9.432 10.22 C 11.54 10.22 12.745 11.237 12.745 12.912 C 12.745 14.587 11.54 15.574 9.432 15.574 L 4.126 15.574 L 4.126 10.221 Z M 30.656 12.584 L 34.451 12.584 L 34.451 27.66 L 30.656 27.66 L 30.656 25.925 C 29.903 27.122 28.216 27.899 26.319 27.899 C 21.771 27.899 19.091 24.729 19.091 20.123 C 19.091 15.517 21.771 12.346 26.259 12.346 C 28.156 12.346 29.782 13.124 30.656 14.26 L 30.656 12.585 Z M 22.855 20.122 C 22.855 22.844 24.452 24.638 26.861 24.638 C 29.3 24.638 30.897 22.844 30.897 20.122 C 30.897 17.4 29.3 15.605 26.861 15.605 C 24.452 15.605 22.855 17.4 22.855 20.122 Z" fill="var(--token-32a600a5-fc8c-4333-a46b-f39387847a42, rgb(255, 255, 255)) /* {&quot;name&quot;:&quot;White&quot;} */"/>
                    <path d="M 47.867 12.584 L 47.626 16.234 C 47.084 15.994 46.361 15.874 45.699 15.874 C 43.56 15.874 41.633 17.639 41.633 22.126 L 41.633 27.659 L 37.838 27.659 L 37.838 12.584 L 41.633 12.584 L 41.633 15.336 C 42.386 13.631 44.373 12.346 46.211 12.346 C 46.753 12.346 47.415 12.435 47.867 12.584 Z M 53.565 27.66 L 49.77 27.66 L 49.77 12.583 L 53.565 12.583 Z M 74.872 27.66 L 78.667 27.66 L 78.667 6.482 L 74.872 6.482 L 74.872 27.658 Z" fill="var(--token-32a600a5-fc8c-4333-a46b-f39387847a42, rgb(255, 255, 255)) /* {&quot;name&quot;:&quot;White&quot;} */"/>
                    <path d="M 96.347 19.613 C 96.347 16.113 93.848 12.345 88.728 12.345 C 83.698 12.345 81.228 16.204 81.228 20.122 C 81.228 24.04 83.909 27.898 88.938 27.898 C 92.492 27.898 95.143 26.224 95.986 23.382 L 92.432 22.425 C 92.041 23.89 90.776 24.728 88.999 24.728 C 86.83 24.728 85.354 23.382 85.023 21.108 L 96.287 21.108 C 96.317 20.81 96.347 20.152 96.347 19.613 Z M 85.113 18.357 C 85.535 16.323 86.86 15.217 88.728 15.217 C 90.926 15.217 92.101 16.562 92.281 18.357 Z" fill="var(--token-32a600a5-fc8c-4333-a46b-f39387847a42, rgb(255, 255, 255)) /* {&quot;name&quot;:&quot;White&quot;} */"/>
                    <path d="M 49.322 7.26 C 49.322 6.303 50.101 5.527 51.061 5.527 L 52.306 5.527 C 53.267 5.527 54.046 6.303 54.046 7.26 L 54.046 8.5 C 54.046 9.457 53.267 10.232 52.306 10.232 L 51.061 10.232 C 50.101 10.232 49.322 9.457 49.322 8.5 Z M 108.265 17.024 L 125.309 0 L 128.295 2.966 L 111.24 20.002 L 120.504 29.276 L 117.514 32.238 L 108.261 22.976 L 91.216 40 L 88.231 37.034 L 105.287 19.998 L 96.022 10.724 L 99.012 7.762 Z" fill="var(--token-32a600a5-fc8c-4333-a46b-f39387847a42, rgb(255, 255, 255)) /* {&quot;name&quot;:&quot;White&quot;} */"/>
                </svg>